<svg height="2670" width="720" xmlns="http://www.w3.org/2000/svg">
<rect height="2670" fill="#555" width="720"></rect>
<text fill="#7f7" font-family="Courier New" font-size="12" xml:space="preserve">
<tspan x="10" y="26">74 megabytes installed</tspan>
<tspan x="10" y="42"></tspan>
<tspan x="10" y="58">node_modules</tspan>
<tspan x="10" y="74">└─┬ mongoui@4.0.6 </tspan>
<tspan x="10" y="90">  ├─┬ body-parser@1.17.1 </tspan>
<tspan x="10" y="106">  │ ├── bytes@2.4.0 </tspan>
<tspan x="10" y="122">  │ ├── content-type@1.0.2 </tspan>
<tspan x="10" y="138">  │ ├─┬ debug@2.6.1 </tspan>
<tspan x="10" y="154">  │ │ └── ms@0.7.2 </tspan>
<tspan x="10" y="170">  │ ├── depd@1.1.0 </tspan>
<tspan x="10" y="186">  │ ├─┬ http-errors@1.6.1 </tspan>
<tspan x="10" y="202">  │ │ └── inherits@2.0.3 </tspan>
<tspan x="10" y="218">  │ ├── iconv-lite@0.4.15 </tspan>
<tspan x="10" y="234">  │ ├─┬ on-finished@2.3.0 </tspan>
<tspan x="10" y="250">  │ │ └── ee-first@1.1.1 </tspan>
<tspan x="10" y="266">  │ ├── qs@6.4.0 </tspan>
<tspan x="10" y="282">  │ ├─┬ raw-body@2.2.0 </tspan>
<tspan x="10" y="298">  │ │ └── unpipe@1.0.0 </tspan>
<tspan x="10" y="314">  │ └─┬ type-is@1.6.15 </tspan>
<tspan x="10" y="330">  │   ├── media-typer@0.3.0 </tspan>
<tspan x="10" y="346">  │   └── mime-types@2.1.15 </tspan>
<tspan x="10" y="362">  ├─┬ compression@1.6.2 </tspan>
<tspan x="10" y="378">  │ ├─┬ accepts@1.3.3 </tspan>
<tspan x="10" y="394">  │ │ └── negotiator@0.6.1 </tspan>
<tspan x="10" y="410">  │ ├── bytes@2.3.0 </tspan>
<tspan x="10" y="426">  │ ├─┬ compressible@2.0.10 </tspan>
<tspan x="10" y="442">  │ │ └── mime-db@1.27.0 </tspan>
<tspan x="10" y="458">  │ ├─┬ debug@2.2.0 </tspan>
<tspan x="10" y="474">  │ │ └── ms@0.7.1 </tspan>
<tspan x="10" y="490">  │ ├── on-headers@1.0.1 </tspan>
<tspan x="10" y="506">  │ └── vary@1.1.1 </tspan>
<tspan x="10" y="522">  ├─┬ cors@2.8.3 </tspan>
<tspan x="10" y="538">  │ └── object-assign@4.1.1 </tspan>
<tspan x="10" y="554">  ├── deep-equal@1.0.1 </tspan>
<tspan x="10" y="570">  ├─┬ errorhandler@1.5.0 </tspan>
<tspan x="10" y="586">  │ └── escape-html@1.0.3 </tspan>
<tspan x="10" y="602">  ├─┬ express@4.15.2 </tspan>
<tspan x="10" y="618">  │ ├── array-flatten@1.1.1 </tspan>
<tspan x="10" y="634">  │ ├── content-disposition@0.5.2 </tspan>
<tspan x="10" y="650">  │ ├── cookie@0.3.1 </tspan>
<tspan x="10" y="666">  │ ├── cookie-signature@1.0.6 </tspan>
<tspan x="10" y="682">  │ ├── encodeurl@1.0.1 </tspan>
<tspan x="10" y="698">  │ ├── etag@1.8.0 </tspan>
<tspan x="10" y="714">  │ ├─┬ finalhandler@1.0.2 </tspan>
<tspan x="10" y="730">  │ │ └─┬ debug@2.6.4 </tspan>
<tspan x="10" y="746">  │ │   └── ms@0.7.3 </tspan>
<tspan x="10" y="762">  │ ├── fresh@0.5.0 </tspan>
<tspan x="10" y="778">  │ ├── merge-descriptors@1.0.1 </tspan>
<tspan x="10" y="794">  │ ├── methods@1.1.2 </tspan>
<tspan x="10" y="810">  │ ├── parseurl@1.3.1 </tspan>
<tspan x="10" y="826">  │ ├── path-to-regexp@0.1.7 </tspan>
<tspan x="10" y="842">  │ ├─┬ proxy-addr@1.1.4 </tspan>
<tspan x="10" y="858">  │ │ ├── forwarded@0.1.0 </tspan>
<tspan x="10" y="874">  │ │ └── ipaddr.js@1.3.0 </tspan>
<tspan x="10" y="890">  │ ├── range-parser@1.2.0 </tspan>
<tspan x="10" y="906">  │ ├─┬ send@0.15.1 </tspan>
<tspan x="10" y="922">  │ │ ├── destroy@1.0.4 </tspan>
<tspan x="10" y="938">  │ │ └── mime@1.3.4 </tspan>
<tspan x="10" y="954">  │ ├── serve-static@1.12.1 </tspan>
<tspan x="10" y="970">  │ ├── setprototypeof@1.0.3 </tspan>
<tspan x="10" y="986">  │ ├── statuses@1.3.1 </tspan>
<tspan x="10" y="1002">  │ └── utils-merge@1.0.0 </tspan>
<tspan x="10" y="1018">  ├─┬ express-handlebars@3.0.0 </tspan>
<tspan x="10" y="1034">  │ ├─┬ glob@6.0.4 </tspan>
<tspan x="10" y="1050">  │ │ ├─┬ inflight@1.0.6 </tspan>
<tspan x="10" y="1066">  │ │ │ └── wrappy@1.0.2 </tspan>
<tspan x="10" y="1082">  │ │ ├─┬ minimatch@3.0.3 </tspan>
<tspan x="10" y="1098">  │ │ │ └─┬ brace-expansion@1.1.7 </tspan>
<tspan x="10" y="1114">  │ │ │   ├── balanced-match@0.4.2 </tspan>
<tspan x="10" y="1130">  │ │ │   └── concat-map@0.0.1 </tspan>
<tspan x="10" y="1146">  │ │ ├── once@1.4.0 </tspan>
<tspan x="10" y="1162">  │ │ └── path-is-absolute@1.0.1 </tspan>
<tspan x="10" y="1178">  │ ├── graceful-fs@4.1.11 </tspan>
<tspan x="10" y="1194">  │ ├─┬ handlebars@4.0.6 </tspan>
<tspan x="10" y="1210">  │ │ ├── async@1.5.2 </tspan>
<tspan x="10" y="1226">  │ │ ├─┬ optimist@0.6.1 </tspan>
<tspan x="10" y="1242">  │ │ │ ├── minimist@0.0.10 </tspan>
<tspan x="10" y="1258">  │ │ │ └── wordwrap@0.0.3 </tspan>
<tspan x="10" y="1274">  │ │ ├─┬ source-map@0.4.4 </tspan>
<tspan x="10" y="1290">  │ │ │ └── amdefine@1.0.1 </tspan>
<tspan x="10" y="1306">  │ │ └─┬ uglify-js@2.8.22 </tspan>
<tspan x="10" y="1322">  │ │   ├── source-map@0.5.6 </tspan>
<tspan x="10" y="1338">  │ │   ├── uglify-to-browserify@1.0.2 </tspan>
<tspan x="10" y="1354">  │ │   └─┬ yargs@3.10.0 </tspan>
<tspan x="10" y="1370">  │ │     ├── camelcase@1.2.1 </tspan>
<tspan x="10" y="1386">  │ │     ├─┬ cliui@2.1.0 </tspan>
<tspan x="10" y="1402">  │ │     │ ├─┬ center-align@0.1.3 </tspan>
<tspan x="10" y="1418">  │ │     │ │ ├─┬ align-text@0.1.4 </tspan>
<tspan x="10" y="1434">  │ │     │ │ │ ├─┬ kind-of@3.1.0 </tspan>
<tspan x="10" y="1450">  │ │     │ │ │ │ └── is-buffer@1.1.5 </tspan>
<tspan x="10" y="1466">  │ │     │ │ │ ├── longest@1.0.1 </tspan>
<tspan x="10" y="1482">  │ │     │ │ │ └── repeat-string@1.6.1 </tspan>
<tspan x="10" y="1498">  │ │     │ │ └── lazy-cache@1.0.4 </tspan>
<tspan x="10" y="1514">  │ │     │ ├── right-align@0.1.3 </tspan>
<tspan x="10" y="1530">  │ │     │ └── wordwrap@0.0.2 </tspan>
<tspan x="10" y="1546">  │ │     ├── decamelize@1.2.0 </tspan>
<tspan x="10" y="1562">  │ │     └── window-size@0.1.0 </tspan>
<tspan x="10" y="1578">  │ ├─┬ object.assign@4.0.4 </tspan>
<tspan x="10" y="1594">  │ │ ├─┬ define-properties@1.1.2 </tspan>
<tspan x="10" y="1610">  │ │ │ └── foreach@2.0.5 </tspan>
<tspan x="10" y="1626">  │ │ ├── function-bind@1.1.0 </tspan>
<tspan x="10" y="1642">  │ │ └── object-keys@1.0.11 </tspan>
<tspan x="10" y="1658">  │ └─┬ promise@7.1.1 </tspan>
<tspan x="10" y="1674">  │   └── asap@2.0.5 </tspan>
<tspan x="10" y="1690">  ├─┬ UNMET PEER DEPENDENCY mongodb@2.2.26</tspan>
<tspan x="10" y="1706">  │ ├── es6-promise@3.2.1 </tspan>
<tspan x="10" y="1722">  │ ├─┬ mongodb-core@2.1.10 </tspan>
<tspan x="10" y="1738">  │ │ ├── bson@1.0.4 </tspan>
<tspan x="10" y="1754">  │ │ └─┬ require_optional@1.0.0 </tspan>
<tspan x="10" y="1770">  │ │   ├── resolve-from@2.0.0 </tspan>
<tspan x="10" y="1786">  │ │   └── semver@5.3.0 </tspan>
<tspan x="10" y="1802">  │ └─┬ readable-stream@2.2.7 </tspan>
<tspan x="10" y="1818">  │   ├── buffer-shims@1.0.0 </tspan>
<tspan x="10" y="1834">  │   ├── core-util-is@1.0.2 </tspan>
<tspan x="10" y="1850">  │   ├── isarray@1.0.0 </tspan>
<tspan x="10" y="1866">  │   ├── process-nextick-args@1.0.7 </tspan>
<tspan x="10" y="1882">  │   ├── string_decoder@1.0.0 </tspan>
<tspan x="10" y="1898">  │   └── util-deprecate@1.0.2 </tspan>
<tspan x="10" y="1914">  ├── mongoskin@2.0.3 </tspan>
<tspan x="10" y="1930">  ├── neo-async@1.8.0 </tspan>
<tspan x="10" y="1946">  ├─┬ react@15.5.4 </tspan>
<tspan x="10" y="1962">  │ ├─┬ fbjs@0.8.12 </tspan>
<tspan x="10" y="1978">  │ │ ├── core-js@1.2.7 </tspan>
<tspan x="10" y="1994">  │ │ ├─┬ isomorphic-fetch@2.2.1 </tspan>
<tspan x="10" y="2010">  │ │ │ ├─┬ node-fetch@1.6.3 </tspan>
<tspan x="10" y="2026">  │ │ │ │ ├── encoding@0.1.12 </tspan>
<tspan x="10" y="2042">  │ │ │ │ └── is-stream@1.1.0 </tspan>
<tspan x="10" y="2058">  │ │ │ └── whatwg-fetch@2.0.3 </tspan>
<tspan x="10" y="2074">  │ │ ├── setimmediate@1.0.5 </tspan>
<tspan x="10" y="2090">  │ │ └── ua-parser-js@0.7.12 </tspan>
<tspan x="10" y="2106">  │ ├─┬ loose-envify@1.3.1 </tspan>
<tspan x="10" y="2122">  │ │ └── js-tokens@3.0.1 </tspan>
<tspan x="10" y="2138">  │ └── prop-types@15.5.8 </tspan>
<tspan x="10" y="2154">  ├─┬ react-bootstrap@0.30.10 </tspan>
<tspan x="10" y="2170">  │ ├─┬ babel-runtime@6.23.0 </tspan>
<tspan x="10" y="2186">  │ │ ├── core-js@2.4.1 </tspan>
<tspan x="10" y="2202">  │ │ └── regenerator-runtime@0.10.3 </tspan>
<tspan x="10" y="2218">  │ ├── classnames@2.2.5 </tspan>
<tspan x="10" y="2234">  │ ├── dom-helpers@3.2.1 </tspan>
<tspan x="10" y="2250">  │ ├── invariant@2.2.2 </tspan>
<tspan x="10" y="2266">  │ ├── keycode@2.1.8 </tspan>
<tspan x="10" y="2282">  │ ├── react-overlays@0.6.12 </tspan>
<tspan x="10" y="2298">  │ ├── react-prop-types@0.4.0 </tspan>
<tspan x="10" y="2314">  │ ├── uncontrollable@4.1.0 </tspan>
<tspan x="10" y="2330">  │ └── warning@3.0.0 </tspan>
<tspan x="10" y="2346">  ├─┬ react-copy-to-clipboard@4.3.1 </tspan>
<tspan x="10" y="2362">  │ ├─┬ copy-to-clipboard@3.0.6 </tspan>
<tspan x="10" y="2378">  │ │ └── toggle-selection@1.0.5 </tspan>
<tspan x="10" y="2394">  │ └── create-react-class@15.5.2 </tspan>
<tspan x="10" y="2410">  ├── react-dom@15.5.4 </tspan>
<tspan x="10" y="2426">  ├─┬ react-highlight@0.8.0 </tspan>
<tspan x="10" y="2442">  │ └── highlight.js@8.9.1 </tspan>
<tspan x="10" y="2458">  ├─┬ react-redux@4.4.1 </tspan>
<tspan x="10" y="2474">  │ ├── hoist-non-react-statics@1.2.0 </tspan>
<tspan x="10" y="2490">  │ └── lodash@4.17.4 </tspan>
<tspan x="10" y="2506">  ├─┬ react-router@2.8.1 </tspan>
<tspan x="10" y="2522">  │ └─┬ history@2.1.2 </tspan>
<tspan x="10" y="2538">  │   ├─┬ query-string@3.0.3 </tspan>
<tspan x="10" y="2554">  │   │ └── strict-uri-encode@1.1.0 </tspan>
<tspan x="10" y="2570">  │   └── warning@2.1.0 </tspan>
<tspan x="10" y="2586">  ├─┬ redux@3.3.1 </tspan>
<tspan x="10" y="2602">  │ └── lodash-es@4.17.4 </tspan>
<tspan x="10" y="2618">  ├── require-dir@0.3.1 </tspan>
<tspan x="10" y="2634">  └─┬ serve-favicon@2.4.2 </tspan>
<tspan x="10" y="2650">    └── ms@1.0.0</tspan>
</text>
</svg>
